#!OML:ASF E:\pregnant2\Project 1\Capture day 1\Session 1\pregnant2.ASF
:FULLY-SPECIFIED
:DEGREES
1708
root 4.93724 22.6854 -6.87096 -331.131 1.7166 -1.58433
lowerback -11.2298 -1.03785 -0.478318
upperback -11.4855 -1.31492 1.18406
thorax -5.77305 -0.578831 1.43205
lowerneck -8.69356 0.11214 -3.24107
upperneck 52.7792 3.33744 -3.67115
head 25.43 0.12088 -0.868711
rclavicle -9.90235e-015 -4.12478e-015
rhumerus -52.3216 4.8376 -70.4659
rradius 40.2553
rwrist 3.25299
rhand -14.267 -10.6489
rfingers 7.12502
rthumb 11.8717 -40.2924
lclavicle -9.90235e-015 -4.12478e-015
lhumerus -52.4339 4.21848 76.5345
lradius 46.175
lwrist -3.2569
lhand -2.86913 24.7986
lfingers 7.12502
lthumb 22.8396 53.4663
rfemur -51.6454 5.26541 26.7827
rtibia 35.3496
rfoot -9.22169 -14.2379
rtoes 0.303866
lfemur -64.8178 3.76231 -25.3513
ltibia 103.827
lfoot -7.86521 0.266042
ltoes -15.2138
1709
root 4.92628 22.6949 -6.80306 -331.025 1.61083 -1.52191
lowerback -11.1046 -1.04272 -0.662961
upperback -11.5513 -1.31105 1.15547
thorax -5.91137 -0.563718 1.50915
lowerneck -8.58356 0.158106 -3.1664
upperneck 52.7449 3.39522 -3.69787
head 25.3362 0.156596 -0.884832
rclavicle -1.31252e-014 -4.17448e-015
rhumerus -52.4297 4.97012 -70.5893
rradius 40.5336
rwrist 3.21637
rhand -14.3293 -10.4229
rfingers 7.12502
rthumb 11.8116 -40.0698
lclavicle -1.31252e-014 -4.17448e-015
lhumerus -52.4983 4.15223 76.3288
lradius 46.3815
lwrist -3.12908
lhand -3.55228 24.2712
lfingers 7.12502
lthumb 22.1838 53.0183
rfemur -51.4953 5.36351 26.7084
rtibia 35.3366
rfoot -9.42303 -14.2979
rtoes 0.162209
lfemur -65.9506 3.69528 -25.4094
ltibia 104.441
lfoot -7.9498 0.263348
ltoes -15.4124
1710
root 4.91604 22.7018 -6.73698 -330.938 1.50777 -1.45654
lowerback -11.0664 -1.03103 -0.861937
upperback -11.4443 -1.28433 1.12893
thorax -5.81203 -0.53842 1.59292
lowerneck -8.83323 0.154867 -3.18965
upperneck 52.6488 3.38287 -3.64003
head 25.3334 0.151948 -0.843074
rclavicle 9.41975e-015 -1.59028e-015
rhumerus -52.3257 5.16237 -70.755
rradius 40.892
rwrist 3.13818
rhand -14.3435 -10.6227
rfingers 7.12502
rthumb 11.7979 -40.2704
lclavicle 9.41975e-015 -1.59028e-015
lhumerus -52.1875 4.18538 76.1763
lradius 46.4839
lwrist -2.77592
lhand -3.96789 25.1411
lfingers 7.12502
lthumb 21.7848 53.9351
rfemur -51.3216 5.42101 26.6613
rtibia 35.332
rfoot -9.68251 -14.3509
rtoes 0.0833793
lfemur -67.0648 3.64129 -25.4812
ltibia 104.919
lfoot -8.25682 0.298553
ltoes -15.5769
1711
root 4.90674 22.7089 -6.67086 -330.863 1.43746 -1.38941
lowerback -11.002 -1.02816 -1.02451
upperback -11.4247 -1.27183 1.09901
thorax -5.82404 -0.521795 1.65403
lowerneck -8.77903 0.180818 -3.13316
upperneck 52.5663 3.43271 -3.70095
head 25.2111 0.178343 -0.875255
rclavicle 2.78764e-015 -1.11319e-014
rhumerus -52.4803 5.42719 -70.9124
rradius 41.3744
rwrist 3.15999
rhand -14.2971 -10.5044
rfingers 7.12502
rthumb 11.8426 -40.1495
lclavicle 2.78764e-015 -1.11319e-014
lhumerus -52.1185 4.12845 76.0259
lradius 46.74
lwrist -2.30898
lhand -4.58835 25.5919
lfingers 7.12502
lthumb 21.1889 54.4539
rfemur -51.126 5.42078 26.6465
rtibia 35.3147
rfoot -9.95573 -14.3788
rtoes -0.0730938
lfemur -68.1091 3.52529 -25.525
ltibia 105.239
lfoot -8.70938 0.370735
ltoes -15.9896
1712
root 4.89581 22.7146 -6.60802 -330.733 1.38173 -1.32111
lowerback -10.9261 -1.03465 -1.25132
upperback -11.4269 -1.2676 1.08199
thorax -5.86493 -0.50369 1.76473
lowerneck -8.84713 0.164607 -3.12493
upperneck 52.4922 3.39788 -3.68987
head 25.1502 0.169239 -0.873504
rclavicle 2.19657e-014 -7.7526e-015
rhumerus -52.5288 5.64197 -71.068
rradius 41.644
rwrist 3.00152
rhand -14.3579 -10.5113
rfingers 7.12502
rthumb 11.7839 -40.1598
lclavicle 2.19657e-014 -7.7526e-015
lhumerus -51.9977 4.09314 75.8619
lradius 46.9376
lwrist -1.87807
lhand -5.19495 25.9481
lfingers 7.12502
lthumb 20.6061 54.8744
rfemur -51.0211 5.47985 26.5915
rtibia 35.3159
rfoot -10.2278 -14.4594
rtoes -0.0254707
lfemur -69.2348 3.38839 -25.5683
ltibia 105.406
lfoot -9.05024 0.611248
ltoes -16.6202
1713
root 4.88655 22.7211 -6.54286 -330.65 1.30495 -1.31112
lowerback -10.8873 -1.00374 -1.34954
upperback -11.351 -1.22134 1.05989
thorax -5.80336 -0.475373 1.79858
lowerneck -9.008 0.163317 -3.16406
upperneck 52.4045 3.4165 -3.68214
head 25.1206 0.168699 -0.852401
rclavicle -1.22687e-015 1.59028e-015
rhumerus -52.4799 5.85488 -71.2144
rradius 41.9028
rwrist 2.96012
rhand -14.1887 -10.6307
rfingers 7.12502
rthumb 11.9472 -40.2697
lclavicle -1.22687e-015 1.59028e-015
lhumerus -51.7364 4.07101 75.7445
lradius 46.9965
lwrist -1.17868
lhand -6.29536 25.7748
lfingers 7.12502
lthumb 19.5484 54.8121
rfemur -50.849 5.55484 26.6027
rtibia 35.3232
rfoot -10.427 -14.5329
rtoes -0.372293
lfemur -70.2351 3.34513 -25.5706
ltibia 105.416
lfoot -9.27176 0.893794
ltoes -16.5773
1714
root 4.87755 22.7235 -6.47728 -330.596 1.22473 -1.29395
lowerback -10.7629 -0.990035 -1.53864
upperback -11.4109 -1.19295 1.06531
thorax -5.93637 -0.445261 1.91487
lowerneck -8.84925 0.158716 -3.14162
upperneck 52.3777 3.40923 -3.72108
head 25.0134 0.169859 -0.879184
rclavicle 6.01634e-015 2.78299e-015
rhumerus -52.7884 6.19643 -71.3771
rradius 42.2903
rwrist 3.0017
rhand -13.8251 -11.1297
rfingers 7.12502
rthumb 12.2977 -40.748
lclavicle 6.01634e-015 2.78299e-015
lhumerus -51.772 4.10787 75.523
lradius 47.1744
lwrist -0.893269
lhand -6.45941 26.144
lfingers 7.12502
lthumb 19.3907 55.1972
rfemur -50.6627 5.62987 26.6027
rtibia 35.3761
rfoot -10.7293 -14.6066
rtoes -0.54528
lfemur -71.1865 3.26687 -25.5754
ltibia 105.273
lfoot -9.50661 1.25838
ltoes -16.9091
1715
root 4.86946 22.727 -6.41257 -330.513 1.15944 -1.2504
lowerback -10.7374 -0.963432 -1.64042
upperback -11.285 -1.15239 1.03225
thorax -5.81261 -0.421321 1.93781
lowerneck -9.14728 0.155948 -3.19152
upperneck 52.2788 3.4386 -3.71126
head 25.0377 0.169945 -0.852435
rclavicle -4.17758e-015 -6.26172e-015
rhumerus -52.6837 6.39323 -71.5137
rradius 42.6094
rwrist 2.97885
rhand -13.5781 -11.3713
rfingers 7.12502
rthumb 12.5359 -40.9753
lclavicle -4.17758e-015 -6.26172e-015
lhumerus -51.3628 4.1261 75.4049
lradius 47.2245
lwrist -0.275353
lhand -7.99277 24.6769
lfingers 7.12502
lthumb 17.9158 53.8717
rfemur -50.5353 5.61425 26.619
rtibia 35.4468
rfoot -11.0763 -14.6104
rtoes -0.410906
lfemur -72.1018 3.14546 -25.5909
ltibia 104.938
lfoot -9.66693 1.62346
ltoes -17.1086
1716
root 4.86191 22.7248 -6.34973 -330.393 1.05509 -1.21254
lowerback -10.7174 -0.939838 -1.81094
upperback -11.2714 -1.11124 1.01911
thorax -5.80895 -0.389124 2.02192
lowerneck -9.16287 0.145596 -3.19597
upperneck 52.1882 3.44977 -3.76834
head 24.9409 0.169229 -0.878023
rclavicle 3.71789e-015 -9.64106e-015
rhumerus -52.8248 6.7238 -71.7206
rradius 42.9597
rwrist 2.94303
rhand -13.6087 -11.2972
rfingers 7.12502
rthumb 12.5064 -40.9029
lclavicle 3.71789e-015 -9.64106e-015
lhumerus -51.2056 4.04593 75.3148
lradius 47.3442
lwrist 0.38326
lhand -8.22378 25.7866
lfingers 7.12502
lthumb 17.6935 55.0016
rfemur -50.478 5.62674 26.6214
rtibia 35.5856
rfoot -11.3851 -14.6029
rtoes -0.616071
lfemur -72.9919 3.02704 -25.5979
ltibia 104.473
lfoot -9.76083 2.08824
ltoes -17.421
1717
root 4.85432 22.7243 -6.28459 -330.291 0.938226 -1.18134
lowerback -10.6684 -0.910932 -1.98954
upperback -11.2738 -1.0631 1.00865
thorax -5.8395 -0.352107 2.11444
lowerneck -9.20849 0.13586 -3.21684
upperneck 52.1518 3.45982 -3.79587
head 24.9219 0.166546 -0.885999
rclavicle 1.11941e-014 -8.94531e-015
rhumerus -52.8334 6.81289 -71.7392
rradius 43.018
rwrist 3.26248
rhand -13.5491 -11.1673
rfingers 7.12502
rthumb 12.5639 -40.7695
lclavicle 1.11941e-014 -8.94531e-015
lhumerus -50.9616 4.14237 75.133
lradius 47.2728
lwrist 0.817543
lhand -8.81372 25.9124
lfingers 7.12502
lthumb 17.1257 55.1776
rfemur -50.4209 5.67837 26.6071
rtibia 35.7625
rfoot -11.7215 -14.6253
rtoes -0.74803
lfemur -73.8146 2.9405 -25.6047
ltibia 103.806
lfoot -9.80568 2.57375
ltoes -16.8729
1718
root 4.84799 22.7219 -6.22212 -330.187 0.919058 -1.05474
lowerback -10.6691 -0.924756 -2.15319
upperback -11.2436 -1.07277 0.969342
thorax -5.80453 -0.34779 2.1638
lowerneck -9.21602 0.134184 -3.28137
upperneck 52.0632 3.48853 -3.8172
head 24.8213 0.163125 -0.874349
rclavicle 2.00027e-015 1.2921e-015
rhumerus -52.8607 6.98815 -71.8462
rradius 43.1979
rwrist 3.3892
rhand -13.663 -10.4902
rfingers 7.12502
rthumb 12.454 -40.0991
lclavicle 2.00027e-015 1.2921e-015
lhumerus -50.7841 4.07934 75.0281
lradius 47.3902
lwrist 1.36818
lhand -9.33808 26.0957
lfingers 7.12502
lthumb 16.621 55.404
rfemur -50.4134 5.68172 26.4938
rtibia 36.0037
rfoot -12.0917 -14.754
rtoes -0.729799
lfemur -74.5863 2.68162 -25.6307
ltibia 102.953
lfoot -9.81835 3.06325
ltoes -17.155
1719
root 4.84139 22.7173 -6.15978 -330.036 0.910073 -0.985422
lowerback -10.8928 -0.938391 -2.38998
upperback -11.2316 -1.06978 0.990639
thorax -5.66681 -0.330573 2.3155
lowerneck -8.99317 0.0933386 -3.37634
upperneck 51.9867 3.43027 -3.81658
head 24.6213 0.127477 -0.86116
rclavicle -5.78339e-015 6.55989e-015
rhumerus -52.9801 7.21787 -71.9425
rradius 43.2765
rwrist 3.60207
rhand -13.5813 -10.6672
rfingers 7.12502
rthumb 12.5328 -40.2713
lclavicle -5.78339e-015 6.55989e-015
lhumerus -50.6009 4.09428 74.9317
lradius 47.3431
lwrist 1.71128
lhand -9.76416 26.252
lfingers 7.12502
lthumb 16.2107 55.5942
rfemur -50.4738 5.73485 26.4156
rtibia 36.2822
rfoot -12.4195 -14.9038
rtoes -1.01308
lfemur -75.3374 2.45429 -25.5829
ltibia 101.945
lfoot -9.80544 3.56283
ltoes -16.7037
